<svg xmlns="http://www.w3.org/2000/svg" xmlns:xlink="http://www.w3.org/1999/xlink" width="250" zoomAndPan="magnify" viewBox="0 0 187.5 74.999997" height="100" preserveAspectRatio="xMidYMid meet" version="1.0"><defs><g/><clipPath id="f4054096c1"><path d="M 3.078125 20.78125 L 12 20.78125 L 12 39 L 3.078125 39 Z M 3.078125 20.78125 " clip-rule="nonzero"/></clipPath><clipPath id="f58cad9c8f"><path d="M 11 49 L 25 49 L 25 50.78125 L 11 50.78125 Z M 11 49 " clip-rule="nonzero"/></clipPath><clipPath id="682766b037"><path d="M 3.078125 39 L 33.078125 39 L 33.078125 44 L 3.078125 44 Z M 3.078125 39 " clip-rule="nonzero"/></clipPath><clipPath id="39f8cf9145"><path d="M 12 20.78125 L 33.078125 20.78125 L 33.078125 34 L 12 34 Z M 12 20.78125 " clip-rule="nonzero"/></clipPath><clipPath id="01b354a825"><path d="M 12 34 L 33.078125 34 L 33.078125 39 L 12 39 Z M 12 34 " clip-rule="nonzero"/></clipPath></defs><g fill="#ffffff" fill-opacity="1"><g transform="translate(50.261714, 44.349728)"><g><path d="M 13.421875 -20.625 L 13.421875 -16.5 L 6.203125 -16.5 L 6.203125 -12.40625 L 12.875 -12.40625 L 12.875 -8.28125 L 6.203125 -8.28125 L 6.203125 0 L 1.5 0 L 1.5 -20.625 Z M 13.421875 -20.625 "/></g></g></g><g fill="#ffffff" fill-opacity="1"><g transform="translate(64.434465, 44.349728)"><g><path d="M 1.921875 -19.96875 C 2.441406 -20.488281 3.054688 -20.75 3.765625 -20.75 C 4.484375 -20.75 5.101562 -20.488281 5.625 -19.96875 C 6.144531 -19.457031 6.40625 -18.84375 6.40625 -18.125 C 6.40625 -17.40625 6.144531 -16.785156 5.625 -16.265625 C 5.101562 -15.753906 4.484375 -15.5 3.765625 -15.5 C 3.054688 -15.5 2.441406 -15.753906 1.921875 -16.265625 C 1.410156 -16.785156 1.15625 -17.40625 1.15625 -18.125 C 1.15625 -18.84375 1.410156 -19.457031 1.921875 -19.96875 Z M 1.5 -12.828125 L 1.5 0 L 5.921875 0 L 5.921875 -12.828125 Z M 1.5 -12.828125 "/></g></g></g><g fill="#ffffff" fill-opacity="1"><g transform="translate(71.983273, 44.349728)"><g><path d="M 1.5 0 L 1.5 -21.5 L 5.921875 -21.5 L 5.921875 0 Z M 1.5 0 "/></g></g></g><g fill="#ffffff" fill-opacity="1"><g transform="translate(79.407101, 44.349728)"><g><path d="M 1.5 0 L 1.5 -12.828125 L 5.921875 -12.828125 L 5.921875 -11.46875 L 5.96875 -11.46875 C 7.125 -12.625 8.351562 -13.203125 9.65625 -13.203125 C 10.582031 -13.203125 11.453125 -13.007812 12.265625 -12.625 C 13.085938 -12.238281 13.707031 -11.644531 14.125 -10.84375 C 15.425781 -12.414062 16.84375 -13.203125 18.375 -13.203125 C 19.738281 -13.203125 20.910156 -12.816406 21.890625 -12.046875 C 22.878906 -11.285156 23.375 -10.085938 23.375 -8.453125 L 23.375 0 L 18.953125 0 L 18.953125 -7.25 C 18.953125 -7.9375 18.765625 -8.507812 18.390625 -8.96875 C 18.015625 -9.425781 17.453125 -9.65625 16.703125 -9.65625 C 16.046875 -9.65625 15.546875 -9.457031 15.203125 -9.0625 C 14.867188 -8.664062 14.6875 -8.195312 14.65625 -7.65625 L 14.65625 0 L 10.21875 0 L 10.21875 -7.25 C 10.21875 -7.9375 10.03125 -8.507812 9.65625 -8.96875 C 9.28125 -9.425781 8.71875 -9.65625 7.96875 -9.65625 C 7.289062 -9.65625 6.78125 -9.441406 6.4375 -9.015625 C 6.09375 -8.585938 5.921875 -8.082031 5.921875 -7.5 L 5.921875 0 Z M 1.5 0 "/></g></g></g><g fill="#ffffff" fill-opacity="1"><g transform="translate(104.028204, 44.349728)"><g><path d="M 13.421875 -20.625 L 13.421875 -16.5 L 6.203125 -16.5 L 6.203125 -12.40625 L 12.875 -12.40625 L 12.875 -8.28125 L 6.203125 -8.28125 L 6.203125 0 L 1.5 0 L 1.5 -20.625 Z M 13.421875 -20.625 "/></g></g></g><g fill="#ffffff" fill-opacity="1"><g transform="translate(118.200955, 44.349728)"><g><path d="M 5.671875 -12.828125 L 5.671875 -6.71875 C 5.671875 -5.457031 5.863281 -4.554688 6.25 -4.015625 C 6.632812 -3.484375 7.285156 -3.21875 8.203125 -3.21875 C 9.117188 -3.21875 9.765625 -3.484375 10.140625 -4.015625 C 10.523438 -4.554688 10.71875 -5.457031 10.71875 -6.71875 L 10.71875 -12.828125 L 15.15625 -12.828125 L 15.15625 -5.65625 C 15.15625 -3.519531 14.597656 -1.976562 13.484375 -1.03125 C 12.378906 -0.09375 10.617188 0.375 8.203125 0.375 C 5.785156 0.375 4.019531 -0.09375 2.90625 -1.03125 C 1.800781 -1.976562 1.25 -3.519531 1.25 -5.65625 L 1.25 -12.828125 Z M 5.671875 -12.828125 "/></g></g></g><g fill="#ffffff" fill-opacity="1"><g transform="translate(134.598357, 44.349728)"><g><path d="M 7.078125 -13.203125 C 7.804688 -13.203125 8.53125 -13.117188 9.25 -12.953125 C 9.96875 -12.785156 10.5 -12.617188 10.84375 -12.453125 L 11.375 -12.203125 L 9.921875 -9.296875 C 8.921875 -9.828125 7.972656 -10.09375 7.078125 -10.09375 C 6.578125 -10.09375 6.222656 -10.039062 6.015625 -9.9375 C 5.804688 -9.832031 5.703125 -9.628906 5.703125 -9.328125 C 5.703125 -9.253906 5.707031 -9.1875 5.71875 -9.125 C 5.738281 -9.0625 5.773438 -9 5.828125 -8.9375 C 5.878906 -8.875 5.925781 -8.820312 5.96875 -8.78125 C 6.007812 -8.738281 6.078125 -8.691406 6.171875 -8.640625 C 6.273438 -8.597656 6.351562 -8.5625 6.40625 -8.53125 C 6.46875 -8.507812 6.566406 -8.472656 6.703125 -8.421875 C 6.835938 -8.367188 6.9375 -8.332031 7 -8.3125 C 7.0625 -8.289062 7.171875 -8.253906 7.328125 -8.203125 C 7.492188 -8.148438 7.617188 -8.113281 7.703125 -8.09375 C 8.210938 -7.945312 8.660156 -7.78125 9.046875 -7.59375 C 9.429688 -7.414062 9.835938 -7.164062 10.265625 -6.84375 C 10.691406 -6.53125 11.019531 -6.128906 11.25 -5.640625 C 11.476562 -5.160156 11.59375 -4.613281 11.59375 -4 C 11.59375 -1.082031 9.570312 0.375 5.53125 0.375 C 4.613281 0.375 3.738281 0.234375 2.90625 -0.046875 C 2.082031 -0.328125 1.488281 -0.613281 1.125 -0.90625 L 0.578125 -1.34375 L 2.375 -4.375 C 2.507812 -4.257812 2.679688 -4.117188 2.890625 -3.953125 C 3.109375 -3.796875 3.5 -3.582031 4.0625 -3.3125 C 4.632812 -3.039062 5.128906 -2.90625 5.546875 -2.90625 C 6.460938 -2.90625 6.921875 -3.210938 6.921875 -3.828125 C 6.921875 -4.109375 6.800781 -4.328125 6.5625 -4.484375 C 6.332031 -4.640625 5.9375 -4.816406 5.375 -5.015625 C 4.820312 -5.222656 4.390625 -5.410156 4.078125 -5.578125 C 3.273438 -5.992188 2.640625 -6.460938 2.171875 -6.984375 C 1.703125 -7.515625 1.46875 -8.210938 1.46875 -9.078125 C 1.46875 -10.378906 1.972656 -11.390625 2.984375 -12.109375 C 3.992188 -12.835938 5.359375 -13.203125 7.078125 -13.203125 Z M 7.078125 -13.203125 "/></g></g></g><g fill="#ffffff" fill-opacity="1"><g transform="translate(146.896406, 44.349728)"><g><path d="M 1.921875 -19.96875 C 2.441406 -20.488281 3.054688 -20.75 3.765625 -20.75 C 4.484375 -20.75 5.101562 -20.488281 5.625 -19.96875 C 6.144531 -19.457031 6.40625 -18.84375 6.40625 -18.125 C 6.40625 -17.40625 6.144531 -16.785156 5.625 -16.265625 C 5.101562 -15.753906 4.484375 -15.5 3.765625 -15.5 C 3.054688 -15.5 2.441406 -15.753906 1.921875 -16.265625 C 1.410156 -16.785156 1.15625 -17.40625 1.15625 -18.125 C 1.15625 -18.84375 1.410156 -19.457031 1.921875 -19.96875 Z M 1.5 -12.828125 L 1.5 0 L 5.921875 0 L 5.921875 -12.828125 Z M 1.5 -12.828125 "/></g></g></g><g fill="#ffffff" fill-opacity="1"><g transform="translate(154.445214, 44.349728)"><g><path d="M 2.703125 -1.515625 C 1.285156 -2.785156 0.578125 -4.410156 0.578125 -6.390625 C 0.578125 -8.378906 1.316406 -10.007812 2.796875 -11.28125 C 4.285156 -12.5625 6.117188 -13.203125 8.296875 -13.203125 C 10.453125 -13.203125 12.265625 -12.554688 13.734375 -11.265625 C 15.210938 -9.984375 15.953125 -8.359375 15.953125 -6.390625 C 15.953125 -4.429688 15.226562 -2.8125 13.78125 -1.53125 C 12.34375 -0.257812 10.515625 0.375 8.296875 0.375 C 5.992188 0.375 4.128906 -0.253906 2.703125 -1.515625 Z M 6.140625 -8.5625 C 5.566406 -8 5.28125 -7.273438 5.28125 -6.390625 C 5.28125 -5.515625 5.550781 -4.796875 6.09375 -4.234375 C 6.644531 -3.679688 7.375 -3.40625 8.28125 -3.40625 C 9.144531 -3.40625 9.851562 -3.6875 10.40625 -4.25 C 10.96875 -4.8125 11.25 -5.53125 11.25 -6.40625 C 11.25 -7.28125 10.960938 -8 10.390625 -8.5625 C 9.816406 -9.132812 9.113281 -9.421875 8.28125 -9.421875 C 7.425781 -9.421875 6.710938 -9.132812 6.140625 -8.5625 Z M 6.140625 -8.5625 "/></g></g></g><g fill="#ffffff" fill-opacity="1"><g transform="translate(170.967598, 44.349728)"><g><path d="M 1.5 0 L 1.5 -12.828125 L 5.921875 -12.828125 L 5.921875 -11.46875 L 5.96875 -11.46875 C 7.125 -12.625 8.351562 -13.203125 9.65625 -13.203125 C 10.28125 -13.203125 10.90625 -13.117188 11.53125 -12.953125 C 12.15625 -12.785156 12.753906 -12.523438 13.328125 -12.171875 C 13.910156 -11.828125 14.378906 -11.332031 14.734375 -10.6875 C 15.097656 -10.039062 15.28125 -9.296875 15.28125 -8.453125 L 15.28125 0 L 10.84375 0 L 10.84375 -7.25 C 10.84375 -7.914062 10.628906 -8.5 10.203125 -9 C 9.785156 -9.5 9.234375 -9.75 8.546875 -9.75 C 7.878906 -9.75 7.273438 -9.488281 6.734375 -8.96875 C 6.191406 -8.457031 5.921875 -7.882812 5.921875 -7.25 L 5.921875 0 Z M 1.5 0 "/></g></g></g><path fill="#ffffff" d="M 14.839844 44.574219 L 13.601562 48.710938 L 22.558594 48.710938 L 21.316406 44.574219 Z M 14.839844 44.574219 " fill-opacity="1" fill-rule="nonzero"/><g clip-path="url(#f4054096c1)"><path fill="#ffffff" d="M 11.355469 20.78125 L 4.628906 20.78125 C 4.425781 20.78125 4.226562 20.820312 4.035156 20.898438 C 3.847656 20.976562 3.679688 21.089844 3.535156 21.234375 C 3.386719 21.378906 3.277344 21.546875 3.195312 21.738281 C 3.117188 21.925781 3.078125 22.125 3.078125 22.332031 L 3.078125 38.367188 L 11.355469 38.367188 Z M 6.699219 36.8125 L 4.628906 36.8125 L 4.628906 34.746094 L 6.699219 34.746094 Z M 6.699219 32.675781 L 4.628906 32.675781 L 4.628906 30.605469 L 6.699219 30.605469 Z M 6.699219 28.539062 L 4.628906 28.539062 L 4.628906 26.46875 L 6.699219 26.46875 Z M 6.699219 24.398438 L 4.628906 24.398438 L 4.628906 22.332031 L 6.699219 22.332031 Z M 10.320312 37.332031 L 8.25 37.332031 L 8.25 36.296875 L 10.320312 36.296875 Z M 10.320312 35.261719 L 8.25 35.261719 L 8.25 34.226562 L 10.320312 34.226562 Z M 10.320312 33.191406 L 8.25 33.191406 L 8.25 32.160156 L 10.320312 32.160156 Z M 10.320312 31.125 L 8.25 31.125 L 8.25 30.089844 L 10.320312 30.089844 Z M 10.320312 29.054688 L 8.25 29.054688 L 8.25 28.019531 L 10.320312 28.019531 Z M 10.320312 26.984375 L 8.25 26.984375 L 8.25 25.953125 L 10.320312 25.953125 Z M 10.320312 24.917969 L 8.25 24.917969 L 8.25 23.882812 L 10.320312 23.882812 Z M 10.320312 22.847656 L 8.25 22.847656 L 8.25 21.8125 L 10.320312 21.8125 Z M 10.320312 22.847656 " fill-opacity="1" fill-rule="nonzero"/></g><g clip-path="url(#f58cad9c8f)"><path fill="#ffffff" d="M 11.871094 49.746094 L 24.285156 49.746094 L 24.285156 50.78125 L 11.871094 50.78125 Z M 11.871094 49.746094 " fill-opacity="1" fill-rule="nonzero"/></g><g clip-path="url(#682766b037)"><path fill="#ffffff" d="M 3.078125 41.984375 C 3.078125 42.191406 3.117188 42.390625 3.195312 42.578125 C 3.277344 42.769531 3.386719 42.9375 3.535156 43.082031 C 3.679688 43.230469 3.847656 43.339844 4.035156 43.417969 C 4.226562 43.5 4.425781 43.539062 4.628906 43.539062 L 31.527344 43.539062 C 31.734375 43.539062 31.929688 43.5 32.121094 43.417969 C 32.3125 43.339844 32.480469 43.230469 32.625 43.082031 C 32.769531 42.9375 32.882812 42.769531 32.960938 42.578125 C 33.039062 42.390625 33.078125 42.191406 33.078125 41.984375 L 33.078125 39.398438 L 3.078125 39.398438 Z M 18.078125 40.433594 C 18.214844 40.433594 18.347656 40.460938 18.476562 40.511719 C 18.601562 40.566406 18.714844 40.640625 18.808594 40.738281 C 18.90625 40.835938 18.980469 40.945312 19.035156 41.074219 C 19.085938 41.199219 19.113281 41.332031 19.113281 41.46875 C 19.113281 41.605469 19.085938 41.738281 19.035156 41.863281 C 18.980469 41.992188 18.90625 42.101562 18.808594 42.199219 C 18.714844 42.296875 18.601562 42.371094 18.476562 42.425781 C 18.347656 42.476562 18.214844 42.503906 18.078125 42.503906 C 17.941406 42.503906 17.808594 42.476562 17.683594 42.425781 C 17.554688 42.371094 17.445312 42.296875 17.347656 42.199219 C 17.25 42.101562 17.175781 41.992188 17.125 41.863281 C 17.070312 41.738281 17.042969 41.605469 17.042969 41.46875 C 17.042969 41.332031 17.070312 41.199219 17.125 41.074219 C 17.175781 40.945312 17.25 40.835938 17.347656 40.738281 C 17.445312 40.640625 17.554688 40.566406 17.683594 40.511719 C 17.808594 40.460938 17.941406 40.433594 18.078125 40.433594 Z M 18.078125 40.433594 " fill-opacity="1" fill-rule="nonzero"/></g><g clip-path="url(#39f8cf9145)"><path fill="#ffffff" d="M 31.527344 20.78125 L 12.390625 20.78125 L 12.390625 33.191406 L 33.078125 33.191406 L 33.078125 22.332031 C 33.078125 22.125 33.039062 21.925781 32.960938 21.738281 C 32.882812 21.546875 32.769531 21.378906 32.625 21.234375 C 32.480469 21.089844 32.3125 20.976562 32.121094 20.898438 C 31.929688 20.820312 31.734375 20.78125 31.527344 20.78125 Z M 30.492188 31.640625 L 16.011719 31.640625 L 16.011719 22.332031 L 30.492188 22.332031 Z M 30.492188 31.640625 " fill-opacity="1" fill-rule="nonzero"/></g><g clip-path="url(#01b354a825)"><path fill="#ffffff" d="M 12.390625 38.367188 L 33.078125 38.367188 L 33.078125 34.226562 L 12.390625 34.226562 Z M 13.425781 35.78125 L 17.042969 35.78125 L 17.042969 34.746094 L 18.078125 34.746094 L 18.078125 35.78125 L 22.21875 35.78125 L 22.21875 34.746094 L 23.25 34.746094 L 23.25 35.78125 L 27.390625 35.78125 L 27.390625 34.746094 L 28.425781 34.746094 L 28.425781 35.78125 L 32.042969 35.78125 L 32.042969 36.8125 L 28.425781 36.8125 L 28.425781 37.847656 L 27.390625 37.847656 L 27.390625 36.8125 L 23.25 36.8125 L 23.25 37.847656 L 22.21875 37.847656 L 22.21875 36.8125 L 18.078125 36.8125 L 18.078125 37.847656 L 17.042969 37.847656 L 17.042969 36.8125 L 13.425781 36.8125 Z M 13.425781 35.78125 " fill-opacity="1" fill-rule="nonzero"/></g><path fill="#ffffff" d="M 21.183594 24.917969 L 21.183594 29.574219 L 25.320312 26.984375 Z M 21.183594 24.917969 " fill-opacity="1" fill-rule="nonzero"/></svg>