<svg xmlns="http://www.w3.org/2000/svg" xmlns:xlink="http://www.w3.org/1999/xlink" width="250" zoomAndPan="magnify" viewBox="0 0 187.5 74.999997" height="100" preserveAspectRatio="xMidYMid meet" version="1.0"><defs><g/><clipPath id="ec2ded4f64"><path d="M 0 0.101562 L 187 0.101562 L 187 74.898438 L 0 74.898438 Z M 0 0.101562 " clip-rule="nonzero"/></clipPath><clipPath id="f45ff8483c"><path d="M 9.058594 18.957031 L 18 18.957031 L 18 37 L 9.058594 37 Z M 9.058594 18.957031 " clip-rule="nonzero"/></clipPath><clipPath id="2ad11902b9"><path d="M 17 47 L 31 47 L 31 48.957031 L 17 48.957031 Z M 17 47 " clip-rule="nonzero"/></clipPath><clipPath id="17c90e556c"><path d="M 9.058594 37 L 39.058594 37 L 39.058594 42 L 9.058594 42 Z M 9.058594 37 " clip-rule="nonzero"/></clipPath><clipPath id="26ab4d0d8a"><path d="M 18 18.957031 L 39.058594 18.957031 L 39.058594 32 L 18 32 Z M 18 18.957031 " clip-rule="nonzero"/></clipPath><clipPath id="a316ed4aeb"><path d="M 18 32 L 39.058594 32 L 39.058594 37 L 18 37 Z M 18 32 " clip-rule="nonzero"/></clipPath></defs><g clip-path="url(#ec2ded4f64)"><path fill="#ffffff" d="M 0 0.101562 L 187.5 0.101562 L 187.5 82.601562 L 0 82.601562 Z M 0 0.101562 " fill-opacity="1" fill-rule="nonzero"/><path fill="#ffffff" d="M 0 0.101562 L 187.5 0.101562 L 187.5 75.101562 L 0 75.101562 Z M 0 0.101562 " fill-opacity="1" fill-rule="nonzero"/><path fill="#ffffff" d="M 0 0.101562 L 187.5 0.101562 L 187.5 75.101562 L 0 75.101562 Z M 0 0.101562 " fill-opacity="1" fill-rule="nonzero"/></g><g fill="#fa0909" fill-opacity="1"><g transform="translate(46.100825, 44.349728)"><g><path d="M 13.421875 -20.625 L 13.421875 -16.5 L 6.203125 -16.5 L 6.203125 -12.40625 L 12.875 -12.40625 L 12.875 -8.28125 L 6.203125 -8.28125 L 6.203125 0 L 1.5 0 L 1.5 -20.625 Z M 13.421875 -20.625 "/></g></g></g><g fill="#fa0909" fill-opacity="1"><g transform="translate(60.273576, 44.349728)"><g><path d="M 1.921875 -19.96875 C 2.441406 -20.488281 3.054688 -20.75 3.765625 -20.75 C 4.484375 -20.75 5.101562 -20.488281 5.625 -19.96875 C 6.144531 -19.457031 6.40625 -18.84375 6.40625 -18.125 C 6.40625 -17.40625 6.144531 -16.785156 5.625 -16.265625 C 5.101562 -15.753906 4.484375 -15.5 3.765625 -15.5 C 3.054688 -15.5 2.441406 -15.753906 1.921875 -16.265625 C 1.410156 -16.785156 1.15625 -17.40625 1.15625 -18.125 C 1.15625 -18.84375 1.410156 -19.457031 1.921875 -19.96875 Z M 1.5 -12.828125 L 1.5 0 L 5.921875 0 L 5.921875 -12.828125 Z M 1.5 -12.828125 "/></g></g></g><g fill="#fa0909" fill-opacity="1"><g transform="translate(67.822384, 44.349728)"><g><path d="M 1.5 0 L 1.5 -21.5 L 5.921875 -21.5 L 5.921875 0 Z M 1.5 0 "/></g></g></g><g fill="#fa0909" fill-opacity="1"><g transform="translate(75.246212, 44.349728)"><g><path d="M 1.5 0 L 1.5 -12.828125 L 5.921875 -12.828125 L 5.921875 -11.46875 L 5.96875 -11.46875 C 7.125 -12.625 8.351562 -13.203125 9.65625 -13.203125 C 10.582031 -13.203125 11.453125 -13.007812 12.265625 -12.625 C 13.085938 -12.238281 13.707031 -11.644531 14.125 -10.84375 C 15.425781 -12.414062 16.84375 -13.203125 18.375 -13.203125 C 19.738281 -13.203125 20.910156 -12.816406 21.890625 -12.046875 C 22.878906 -11.285156 23.375 -10.085938 23.375 -8.453125 L 23.375 0 L 18.953125 0 L 18.953125 -7.25 C 18.953125 -7.9375 18.765625 -8.507812 18.390625 -8.96875 C 18.015625 -9.425781 17.453125 -9.65625 16.703125 -9.65625 C 16.046875 -9.65625 15.546875 -9.457031 15.203125 -9.0625 C 14.867188 -8.664062 14.6875 -8.195312 14.65625 -7.65625 L 14.65625 0 L 10.21875 0 L 10.21875 -7.25 C 10.21875 -7.9375 10.03125 -8.507812 9.65625 -8.96875 C 9.28125 -9.425781 8.71875 -9.65625 7.96875 -9.65625 C 7.289062 -9.65625 6.78125 -9.441406 6.4375 -9.015625 C 6.09375 -8.585938 5.921875 -8.082031 5.921875 -7.5 L 5.921875 0 Z M 1.5 0 "/></g></g></g><g fill="#000000" fill-opacity="1"><g transform="translate(99.866445, 44.349728)"><g><path d="M 13.421875 -20.625 L 13.421875 -16.5 L 6.203125 -16.5 L 6.203125 -12.40625 L 12.875 -12.40625 L 12.875 -8.28125 L 6.203125 -8.28125 L 6.203125 0 L 1.5 0 L 1.5 -20.625 Z M 13.421875 -20.625 "/></g></g></g><g fill="#000000" fill-opacity="1"><g transform="translate(114.039196, 44.349728)"><g><path d="M 5.671875 -12.828125 L 5.671875 -6.71875 C 5.671875 -5.457031 5.863281 -4.554688 6.25 -4.015625 C 6.632812 -3.484375 7.285156 -3.21875 8.203125 -3.21875 C 9.117188 -3.21875 9.765625 -3.484375 10.140625 -4.015625 C 10.523438 -4.554688 10.71875 -5.457031 10.71875 -6.71875 L 10.71875 -12.828125 L 15.15625 -12.828125 L 15.15625 -5.65625 C 15.15625 -3.519531 14.597656 -1.976562 13.484375 -1.03125 C 12.378906 -0.09375 10.617188 0.375 8.203125 0.375 C 5.785156 0.375 4.019531 -0.09375 2.90625 -1.03125 C 1.800781 -1.976562 1.25 -3.519531 1.25 -5.65625 L 1.25 -12.828125 Z M 5.671875 -12.828125 "/></g></g></g><g fill="#000000" fill-opacity="1"><g transform="translate(130.436599, 44.349728)"><g><path d="M 7.078125 -13.203125 C 7.804688 -13.203125 8.53125 -13.117188 9.25 -12.953125 C 9.96875 -12.785156 10.5 -12.617188 10.84375 -12.453125 L 11.375 -12.203125 L 9.921875 -9.296875 C 8.921875 -9.828125 7.972656 -10.09375 7.078125 -10.09375 C 6.578125 -10.09375 6.222656 -10.039062 6.015625 -9.9375 C 5.804688 -9.832031 5.703125 -9.628906 5.703125 -9.328125 C 5.703125 -9.253906 5.707031 -9.1875 5.71875 -9.125 C 5.738281 -9.0625 5.773438 -9 5.828125 -8.9375 C 5.878906 -8.875 5.925781 -8.820312 5.96875 -8.78125 C 6.007812 -8.738281 6.078125 -8.691406 6.171875 -8.640625 C 6.273438 -8.597656 6.351562 -8.5625 6.40625 -8.53125 C 6.46875 -8.507812 6.566406 -8.472656 6.703125 -8.421875 C 6.835938 -8.367188 6.9375 -8.332031 7 -8.3125 C 7.0625 -8.289062 7.171875 -8.253906 7.328125 -8.203125 C 7.492188 -8.148438 7.617188 -8.113281 7.703125 -8.09375 C 8.210938 -7.945312 8.660156 -7.78125 9.046875 -7.59375 C 9.429688 -7.414062 9.835938 -7.164062 10.265625 -6.84375 C 10.691406 -6.53125 11.019531 -6.128906 11.25 -5.640625 C 11.476562 -5.160156 11.59375 -4.613281 11.59375 -4 C 11.59375 -1.082031 9.570312 0.375 5.53125 0.375 C 4.613281 0.375 3.738281 0.234375 2.90625 -0.046875 C 2.082031 -0.328125 1.488281 -0.613281 1.125 -0.90625 L 0.578125 -1.34375 L 2.375 -4.375 C 2.507812 -4.257812 2.679688 -4.117188 2.890625 -3.953125 C 3.109375 -3.796875 3.5 -3.582031 4.0625 -3.3125 C 4.632812 -3.039062 5.128906 -2.90625 5.546875 -2.90625 C 6.460938 -2.90625 6.921875 -3.210938 6.921875 -3.828125 C 6.921875 -4.109375 6.800781 -4.328125 6.5625 -4.484375 C 6.332031 -4.640625 5.9375 -4.816406 5.375 -5.015625 C 4.820312 -5.222656 4.390625 -5.410156 4.078125 -5.578125 C 3.273438 -5.992188 2.640625 -6.460938 2.171875 -6.984375 C 1.703125 -7.515625 1.46875 -8.210938 1.46875 -9.078125 C 1.46875 -10.378906 1.972656 -11.390625 2.984375 -12.109375 C 3.992188 -12.835938 5.359375 -13.203125 7.078125 -13.203125 Z M 7.078125 -13.203125 "/></g></g></g><g fill="#000000" fill-opacity="1"><g transform="translate(142.734648, 44.349728)"><g><path d="M 1.921875 -19.96875 C 2.441406 -20.488281 3.054688 -20.75 3.765625 -20.75 C 4.484375 -20.75 5.101562 -20.488281 5.625 -19.96875 C 6.144531 -19.457031 6.40625 -18.84375 6.40625 -18.125 C 6.40625 -17.40625 6.144531 -16.785156 5.625 -16.265625 C 5.101562 -15.753906 4.484375 -15.5 3.765625 -15.5 C 3.054688 -15.5 2.441406 -15.753906 1.921875 -16.265625 C 1.410156 -16.785156 1.15625 -17.40625 1.15625 -18.125 C 1.15625 -18.84375 1.410156 -19.457031 1.921875 -19.96875 Z M 1.5 -12.828125 L 1.5 0 L 5.921875 0 L 5.921875 -12.828125 Z M 1.5 -12.828125 "/></g></g></g><g fill="#000000" fill-opacity="1"><g transform="translate(150.283456, 44.349728)"><g><path d="M 2.703125 -1.515625 C 1.285156 -2.785156 0.578125 -4.410156 0.578125 -6.390625 C 0.578125 -8.378906 1.316406 -10.007812 2.796875 -11.28125 C 4.285156 -12.5625 6.117188 -13.203125 8.296875 -13.203125 C 10.453125 -13.203125 12.265625 -12.554688 13.734375 -11.265625 C 15.210938 -9.984375 15.953125 -8.359375 15.953125 -6.390625 C 15.953125 -4.429688 15.226562 -2.8125 13.78125 -1.53125 C 12.34375 -0.257812 10.515625 0.375 8.296875 0.375 C 5.992188 0.375 4.128906 -0.253906 2.703125 -1.515625 Z M 6.140625 -8.5625 C 5.566406 -8 5.28125 -7.273438 5.28125 -6.390625 C 5.28125 -5.515625 5.550781 -4.796875 6.09375 -4.234375 C 6.644531 -3.679688 7.375 -3.40625 8.28125 -3.40625 C 9.144531 -3.40625 9.851562 -3.6875 10.40625 -4.25 C 10.96875 -4.8125 11.25 -5.53125 11.25 -6.40625 C 11.25 -7.28125 10.960938 -8 10.390625 -8.5625 C 9.816406 -9.132812 9.113281 -9.421875 8.28125 -9.421875 C 7.425781 -9.421875 6.710938 -9.132812 6.140625 -8.5625 Z M 6.140625 -8.5625 "/></g></g></g><g fill="#000000" fill-opacity="1"><g transform="translate(166.805839, 44.349728)"><g><path d="M 1.5 0 L 1.5 -12.828125 L 5.921875 -12.828125 L 5.921875 -11.46875 L 5.96875 -11.46875 C 7.125 -12.625 8.351562 -13.203125 9.65625 -13.203125 C 10.28125 -13.203125 10.90625 -13.117188 11.53125 -12.953125 C 12.15625 -12.785156 12.753906 -12.523438 13.328125 -12.171875 C 13.910156 -11.828125 14.378906 -11.332031 14.734375 -10.6875 C 15.097656 -10.039062 15.28125 -9.296875 15.28125 -8.453125 L 15.28125 0 L 10.84375 0 L 10.84375 -7.25 C 10.84375 -7.914062 10.628906 -8.5 10.203125 -9 C 9.785156 -9.5 9.234375 -9.75 8.546875 -9.75 C 7.878906 -9.75 7.273438 -9.488281 6.734375 -8.96875 C 6.191406 -8.457031 5.921875 -7.882812 5.921875 -7.25 L 5.921875 0 Z M 1.5 0 "/></g></g></g><path fill="#ff3131" d="M 20.824219 42.753906 L 19.582031 46.890625 L 28.539062 46.890625 L 27.296875 42.753906 Z M 20.824219 42.753906 " fill-opacity="1" fill-rule="nonzero"/><g clip-path="url(#f45ff8483c)"><path fill="#ff3131" d="M 17.335938 18.957031 L 10.613281 18.957031 C 10.40625 18.957031 10.207031 19 10.019531 19.078125 C 9.828125 19.15625 9.660156 19.269531 9.515625 19.414062 C 9.371094 19.558594 9.257812 19.726562 9.179688 19.917969 C 9.101562 20.105469 9.058594 20.304688 9.058594 20.511719 L 9.058594 36.546875 L 17.335938 36.546875 Z M 12.679688 34.992188 L 10.613281 34.992188 L 10.613281 32.925781 L 12.679688 32.925781 Z M 12.679688 30.855469 L 10.613281 30.855469 L 10.613281 28.785156 L 12.679688 28.785156 Z M 12.679688 26.71875 L 10.613281 26.71875 L 10.613281 24.648438 L 12.679688 24.648438 Z M 12.679688 22.578125 L 10.613281 22.578125 L 10.613281 20.511719 L 12.679688 20.511719 Z M 16.300781 35.511719 L 14.234375 35.511719 L 14.234375 34.476562 L 16.300781 34.476562 Z M 16.300781 33.441406 L 14.234375 33.441406 L 14.234375 32.40625 L 16.300781 32.40625 Z M 16.300781 31.371094 L 14.234375 31.371094 L 14.234375 30.339844 L 16.300781 30.339844 Z M 16.300781 29.304688 L 14.234375 29.304688 L 14.234375 28.269531 L 16.300781 28.269531 Z M 16.300781 27.234375 L 14.234375 27.234375 L 14.234375 26.199219 L 16.300781 26.199219 Z M 16.300781 25.164062 L 14.234375 25.164062 L 14.234375 24.132812 L 16.300781 24.132812 Z M 16.300781 23.097656 L 14.234375 23.097656 L 14.234375 22.0625 L 16.300781 22.0625 Z M 16.300781 21.027344 L 14.234375 21.027344 L 14.234375 19.992188 L 16.300781 19.992188 Z M 16.300781 21.027344 " fill-opacity="1" fill-rule="nonzero"/></g><g clip-path="url(#2ad11902b9)"><path fill="#ff3131" d="M 17.851562 47.925781 L 30.265625 47.925781 L 30.265625 48.957031 L 17.851562 48.957031 Z M 17.851562 47.925781 " fill-opacity="1" fill-rule="nonzero"/></g><g clip-path="url(#17c90e556c)"><path fill="#ff3131" d="M 9.058594 40.164062 C 9.058594 40.371094 9.101562 40.570312 9.179688 40.757812 C 9.257812 40.949219 9.371094 41.117188 9.515625 41.261719 C 9.660156 41.410156 9.828125 41.519531 10.019531 41.597656 C 10.207031 41.679688 10.40625 41.71875 10.613281 41.71875 L 37.507812 41.71875 C 37.714844 41.71875 37.914062 41.679688 38.101562 41.597656 C 38.292969 41.519531 38.460938 41.410156 38.605469 41.261719 C 38.75 41.117188 38.863281 40.949219 38.941406 40.757812 C 39.019531 40.570312 39.058594 40.371094 39.058594 40.164062 L 39.058594 37.578125 L 9.058594 37.578125 Z M 24.058594 38.613281 C 24.199219 38.613281 24.328125 38.640625 24.457031 38.691406 C 24.582031 38.746094 24.695312 38.820312 24.792969 38.917969 C 24.890625 39.015625 24.964844 39.125 25.015625 39.253906 C 25.070312 39.378906 25.09375 39.511719 25.09375 39.648438 C 25.09375 39.785156 25.070312 39.917969 25.015625 40.042969 C 24.964844 40.171875 24.890625 40.28125 24.792969 40.378906 C 24.695312 40.476562 24.582031 40.550781 24.457031 40.605469 C 24.328125 40.65625 24.199219 40.683594 24.058594 40.683594 C 23.921875 40.683594 23.792969 40.65625 23.664062 40.605469 C 23.539062 40.550781 23.425781 40.476562 23.328125 40.378906 C 23.230469 40.28125 23.15625 40.171875 23.105469 40.042969 C 23.050781 39.917969 23.027344 39.785156 23.027344 39.648438 C 23.027344 39.511719 23.050781 39.378906 23.105469 39.253906 C 23.15625 39.125 23.230469 39.015625 23.328125 38.917969 C 23.425781 38.820312 23.539062 38.746094 23.664062 38.691406 C 23.792969 38.640625 23.921875 38.613281 24.058594 38.613281 Z M 24.058594 38.613281 " fill-opacity="1" fill-rule="nonzero"/></g><g clip-path="url(#26ab4d0d8a)"><path fill="#ff3131" d="M 37.507812 18.957031 L 18.371094 18.957031 L 18.371094 31.371094 L 39.058594 31.371094 L 39.058594 20.511719 C 39.058594 20.304688 39.019531 20.105469 38.941406 19.917969 C 38.863281 19.726562 38.75 19.558594 38.605469 19.414062 C 38.460938 19.269531 38.292969 19.15625 38.101562 19.078125 C 37.914062 19 37.714844 18.957031 37.507812 18.957031 Z M 36.472656 29.820312 L 21.992188 29.820312 L 21.992188 20.511719 L 36.472656 20.511719 Z M 36.472656 29.820312 " fill-opacity="1" fill-rule="nonzero"/></g><g clip-path="url(#a316ed4aeb)"><path fill="#ff3131" d="M 18.371094 36.546875 L 39.058594 36.546875 L 39.058594 32.40625 L 18.371094 32.40625 Z M 19.40625 33.957031 L 23.027344 33.957031 L 23.027344 32.925781 L 24.058594 32.925781 L 24.058594 33.957031 L 28.199219 33.957031 L 28.199219 32.925781 L 29.234375 32.925781 L 29.234375 33.957031 L 33.371094 33.957031 L 33.371094 32.925781 L 34.40625 32.925781 L 34.40625 33.957031 L 38.027344 33.957031 L 38.027344 34.992188 L 34.40625 34.992188 L 34.40625 36.027344 L 33.371094 36.027344 L 33.371094 34.992188 L 29.234375 34.992188 L 29.234375 36.027344 L 28.199219 36.027344 L 28.199219 34.992188 L 24.058594 34.992188 L 24.058594 36.027344 L 23.027344 36.027344 L 23.027344 34.992188 L 19.40625 34.992188 Z M 19.40625 33.957031 " fill-opacity="1" fill-rule="nonzero"/></g><path fill="#ff3131" d="M 27.164062 23.097656 L 27.164062 27.753906 L 31.300781 25.164062 Z M 27.164062 23.097656 " fill-opacity="1" fill-rule="nonzero"/></svg>